<?xml version="1.0" encoding="UTF-8" standalone="no"?>
<!-- Created with Inkscape (http://www.inkscape.org/) -->

<svg
   xmlns:dc="http://purl.org/dc/elements/1.1/"
   xmlns:cc="http://creativecommons.org/ns#"
   xmlns:rdf="http://www.w3.org/1999/02/22-rdf-syntax-ns#"
   xmlns:svg="http://www.w3.org/2000/svg"
   xmlns="http://www.w3.org/2000/svg"
   xmlns:sodipodi="http://sodipodi.sourceforge.net/DTD/sodipodi-0.dtd"
   xmlns:inkscape="http://www.inkscape.org/namespaces/inkscape"
   width="210mm"
   height="297mm"
   viewBox="0 0 210 297"
   version="1.1"
   id="svg8"
   sodipodi:docname="icon.svg"
   inkscape:version="0.92.3 (2405546, 2018-03-11)">
  <defs
     id="defs2" />
  <sodipodi:namedview
     id="base"
     pagecolor="#ffffff"
     bordercolor="#666666"
     borderopacity="1.0"
     inkscape:pageopacity="0.0"
     inkscape:pageshadow="2"
     inkscape:zoom="0.35"
     inkscape:cx="-37.405113"
     inkscape:cy="620.5895"
     inkscape:document-units="mm"
     inkscape:current-layer="layer1"
     showgrid="false"
     showguides="false"
     inkscape:window-width="1366"
     inkscape:window-height="705"
     inkscape:window-x="-8"
     inkscape:window-y="-8"
     inkscape:window-maximized="1" />
  <metadata
     id="metadata5">
    <rdf:RDF>
      <cc:Work
         rdf:about="">
        <dc:format>image/svg+xml</dc:format>
        <dc:type
           rdf:resource="http://purl.org/dc/dcmitype/StillImage" />
        <dc:title></dc:title>
      </cc:Work>
    </rdf:RDF>
  </metadata>
  <g
     inkscape:label="Camada 1"
     inkscape:groupmode="layer"
     id="layer1"
     style="opacity:1">
    <path
       style="opacity:1;fill:#0000ff;fill-opacity:1;fill-rule:evenodd;stroke:#00ffff;stroke-width:0;stroke-linecap:round;stroke-linejoin:round;stroke-miterlimit:4;stroke-dasharray:none;stroke-opacity:0;paint-order:stroke fill markers"
       id="path4518"
       sodipodi:type="arc"
       sodipodi:cx="88.068451"
       sodipodi:cy="159.41667"
       sodipodi:rx="60.098213"
       sodipodi:ry="58.964287"
       sodipodi:start="0"
       sodipodi:end="0.0064695865"
       sodipodi:open="true"
       d="m 148.16666,159.41667 a 60.098213,58.964287 0 0 1 -0.001,0.38147" />
    <path
       style="opacity:1;fill:#0000ff;fill-opacity:1;fill-rule:evenodd;stroke:#ffffff;stroke-width:0;stroke-linecap:round;stroke-linejoin:round;stroke-miterlimit:4;stroke-dasharray:none;stroke-opacity:0;paint-order:stroke fill markers"
       inkscape:transform-center-x="27.970238"
       inkscape:transform-center-y="123.97619"
       d="M 202.06288,154.15034 A 91.092255,91.848213 0 0 1 110.97063,245.99856 91.092255,91.848213 0 0 1 19.878368,154.15034 91.092255,91.848213 0 0 1 110.97063,62.302137 91.092255,91.848213 0 0 1 202.06288,154.15034 Z"
       id="path4663"
       inkscape:connector-curvature="0" />
    <path
       style="opacity:1;fill:#ffffff;fill-opacity:1;fill-rule:evenodd;stroke:#ffffff;stroke-width:0;stroke-linecap:round;stroke-linejoin:round;stroke-miterlimit:4;stroke-dasharray:none;stroke-opacity:0;paint-order:stroke fill markers"
       d="m 78.173806,104.11846 c -2.01003,0 -3.62822,1.42202 -3.62822,3.18857 v 4.67015 46.81693 A 25.223644,22.658271 0 0 0 55.8718,180.66649 25.223644,22.658271 0 0 0 81.095536,203.32488 25.223644,22.658271 0 0 0 106.31911,180.66649 25.223644,22.658271 0 0 0 88.202596,158.9408 v -43.77488 h 46.465854 v 44.48552 a 24.928023,22.658271 0 0 0 -18.45488,21.8724 24.928023,22.658271 0 0 0 24.92804,22.65838 24.928023,22.658271 0 0 0 24.92784,-22.65838 24.928023,22.658271 0 0 0 -17.90404,-21.7257 v -47.47383 h -0.0198 c 0.0139,-0.11404 0.0215,-0.22973 0.0215,-0.34713 v -4.67015 c 0,-1.76655 -1.61819,-3.18857 -3.62821,-3.18857 z"
       id="path4630"
       inkscape:connector-curvature="0"
       inkscape:transform-center-x="27.970238"
       inkscape:transform-center-y="126.21224" />
  </g>
</svg>
